<?xml version="1.0" encoding="UTF-8"?>
<svg version="1.1" xmlns="http://www.w3.org/2000/svg" width="512" height="512">
<path d="M0 0 C2.14159993 2.00383998 4.26232677 4.0282191 6.375 6.0625 C6.89868164 6.56426758 7.42236328 7.06603516 7.96191406 7.58300781 C14.97742763 14.33788311 21.43059464 21.3276111 27.375 29.0625 C27.79604004 29.60712891 28.21708008 30.15175781 28.65087891 30.71289062 C36.33052767 40.7056866 43.0375853 51.17585194 49.375 62.0625 C49.7369043 62.67496582 50.09880859 63.28743164 50.47167969 63.91845703 C81.96312168 117.66485587 87.84934901 185.7328128 72.52294922 245.37841797 C64.97487044 273.0410846 53.13366364 299.70805709 36.375 323.0625 C35.69179688 324.01898438 35.00859375 324.97546875 34.3046875 325.9609375 C20.13877304 345.30578842 3.4645886 363.74391181 -15.98632812 377.86816406 C-17.62820262 379.06483421 -19.24416788 380.29108707 -20.859375 381.5234375 C-55.54627579 407.58484859 -97.79451352 422.22104442 -140.625 427.0625 C-141.72972656 427.19398438 -142.83445312 427.32546875 -143.97265625 427.4609375 C-200.59013671 432.98095536 -260.40207457 417.24989538 -306.625 384.0625 C-307.59308594 383.36769531 -308.56117188 382.67289062 -309.55859375 381.95703125 C-328.8138192 367.80982399 -347.32658788 351.27923438 -361.35205078 331.82275391 C-362.72067064 329.93020516 -364.12343433 328.06571194 -365.52734375 326.19921875 C-402.71662108 275.99429554 -418.52394256 209.7654747 -409.625 148.0625 C-401.83187563 96.62787915 -379.73543643 49.59573616 -343.625 12.0625 C-343.02526367 11.43553223 -342.42552734 10.80856445 -341.80761719 10.16259766 C-332.97628263 0.97792083 -323.95577845 -7.46902613 -313.625 -14.9375 C-313.01221191 -15.38399902 -312.39942383 -15.83049805 -311.76806641 -16.29052734 C-275.72240907 -42.35686914 -234.83639837 -57.93994945 -190.625 -62.9375 C-189.52027344 -63.06898437 -188.41554687 -63.20046875 -187.27734375 -63.3359375 C-119.46281755 -69.94763044 -49.97381206 -46.02517179 0 0 Z M-282.96484375 93.55078125 C-299.47874489 112.60528257 -305.30281073 136.23447095 -303.625 161.0625 C-299.9375291 189.53796976 -282.65737109 208.30065479 -263.08227539 227.56933594 C-262.34871826 228.29411133 -261.61516113 229.01888672 -260.859375 229.765625 C-260.21194336 230.40145508 -259.56451172 231.03728516 -258.89746094 231.69238281 C-256.98184406 233.690321 -255.17258717 235.72614885 -253.36621094 237.82128906 C-249.6049168 242.14787455 -245.60740646 246.19040361 -241.53125 250.21875 C-240.78089478 250.9653186 -240.03053955 251.71188721 -239.25744629 252.4810791 C-236.8824008 254.84402025 -234.50413183 257.2036737 -232.125 259.5625 C-228.98660783 262.67410646 -225.85167255 265.78913755 -222.71875 268.90625 C-221.65750916 269.95504333 -221.65750916 269.95504333 -220.5748291 271.02502441 C-216.66947456 274.9113409 -212.97512914 278.90489152 -209.37738037 283.07635498 C-206.34850659 286.50927553 -203.12451838 289.74564389 -199.8984375 292.9921875 C-199.18773102 293.70859406 -198.47702454 294.42500061 -197.74478149 295.16311646 C-196.25539133 296.6618781 -194.76460088 298.1592494 -193.27246094 299.65527344 C-190.99211507 301.94541882 -188.72265354 304.24601561 -186.453125 306.546875 C-184.99805436 308.00846838 -183.54234742 309.46942864 -182.0859375 310.9296875 C-181.41186859 311.61610321 -180.73779968 312.30251892 -180.04330444 313.00973511 C-174.85087897 318.17772487 -171.30654672 320.22500491 -163.78515625 320.42578125 C-156.48801769 319.1985952 -151.91723802 313.76130528 -146.97265625 308.73828125 C-146.15429794 307.91804977 -145.33593964 307.0978183 -144.49278259 306.25273132 C-142.76551076 304.51874992 -141.04183412 302.78118075 -139.3215332 301.0402832 C-136.70704162 298.39477346 -134.08216398 295.75995085 -131.45507812 293.12695312 C-129.77281591 291.43551382 -128.09115566 289.74347557 -126.41015625 288.05078125 C-125.63390396 287.27027908 -124.85765167 286.48977692 -124.05787659 285.68562317 C-120.62646134 282.20971102 -117.2724578 278.7095999 -114.08178711 275.01049805 C-110.42569986 270.77309864 -106.51040613 266.83873379 -102.53125 262.90625 C-101.40571716 261.78639709 -101.40571716 261.78639709 -100.25744629 260.6439209 C-97.08283496 257.48548888 -93.90224084 254.33310721 -90.72216797 251.18017578 C-88.38559639 248.86180255 -86.05212001 246.5403448 -83.71875 244.21875 C-83.0112561 243.51955444 -82.30376221 242.82035889 -81.5748291 242.09997559 C-77.60746077 238.15194762 -73.85063427 234.09272844 -70.19613647 229.85403442 C-68.18137403 227.55664248 -66.04317523 225.4172919 -63.84765625 223.29296875 C-62.58211914 222.05256836 -62.58211914 222.05256836 -61.29101562 220.78710938 C-59.56319477 219.10335897 -57.83145032 217.42362499 -56.09570312 215.74804688 C-48.10008336 207.88660227 -41.28172271 199.37599241 -36.375 189.25 C-35.87987915 188.24477295 -35.87987915 188.24477295 -35.37475586 187.21923828 C-25.72943984 166.96574297 -24.87803907 143.95596809 -31.69140625 122.7421875 C-35.96069518 110.82199466 -42.33375673 100.58825434 -50.625 91.0625 C-51.13160156 90.46050781 -51.63820313 89.85851562 -52.16015625 89.23828125 C-66.19954592 73.83444962 -87.11175257 66.27944352 -107.44140625 64.78125 C-128.03672573 64.26583012 -149.27902091 70.99535251 -164.625 85.0625 C-167.69906304 83.63996519 -170.23809322 81.9123761 -172.9375 79.875 C-208.51717931 54.77534405 -254.01779896 62.767363 -282.96484375 93.55078125 Z " fill="#E81B23" transform="translate(421.625,73.9375)"/>
<path d="M0 0 C1.00514648 0.00757324 2.01029297 0.01514648 3.04589844 0.02294922 C10.88067781 0.19624027 17.4190278 1.18417078 24.625 4.4375 C26.04619141 5.07365234 26.04619141 5.07365234 27.49609375 5.72265625 C37.85183075 10.87898022 45.63576068 19.24741388 53.625 27.4375 C57.18773941 26.0908186 59.32818279 23.79765256 61.88671875 21.04467773 C72.96499122 9.14995268 86.5070286 0.96554488 103.09765625 0.0625 C113.90440129 -0.27482344 123.61185981 0.04501137 133.625 4.4375 C134.48738281 4.788125 135.34976563 5.13875 136.23828125 5.5 C151.3740559 12.27932053 161.95852591 25.06306455 168.40625 40.08984375 C175.03956319 58.31019442 173.95286682 76.99887114 166.05078125 94.64453125 C162.44569632 101.70654693 157.67476976 107.53279184 152.3046875 113.328125 C151.78671097 113.88799606 151.26873444 114.44786713 150.73506165 115.02470398 C144.278939 121.94936749 137.54211248 128.59296262 130.8125 135.25 C128.28211949 137.75347179 125.75531496 140.26047938 123.23046875 142.76953125 C122.6699028 143.32179886 122.10933685 143.87406647 121.53178406 144.44306946 C118.62589378 147.33122821 115.85525064 150.2841877 113.17700195 153.38549805 C109.68590179 157.4207708 105.98359613 161.19048105 102.1875 164.9375 C101.16184937 165.9574707 101.16184937 165.9574707 100.11547852 166.99804688 C97.22762227 169.86975143 94.33376925 172.73538438 91.44042969 175.6015625 C89.31234275 177.71142787 87.18737083 179.82439645 85.0625 181.9375 C84.42062744 182.57107422 83.77875488 183.20464844 83.11743164 183.85742188 C79.29608632 187.65832687 75.69187538 191.58605406 72.16989136 195.66552734 C70.40595417 197.68874305 68.566409 199.61061674 66.66015625 201.5 C66.00595703 202.15097656 65.35175781 202.80195313 64.67773438 203.47265625 C64.02095703 204.12105469 63.36417969 204.76945313 62.6875 205.4375 C62.00365234 206.11683594 61.31980469 206.79617188 60.61523438 207.49609375 C58.95412841 209.14558359 57.29071487 210.7926668 55.625 212.4375 C52.18569417 210.95623643 49.95545662 209.01322554 47.32421875 206.3671875 C46.51146484 205.5525 45.69871094 204.7378125 44.86132812 203.8984375 C44.02021484 203.04507813 43.17910156 202.19171875 42.3125 201.3125 C41.48298828 200.48234375 40.65347656 199.6521875 39.79882812 198.796875 C36.18145508 195.15380633 32.65164032 191.48823165 29.29614258 187.60205078 C25.75938287 183.53542597 22.02177294 179.72220219 18.1875 175.9375 C17.50373291 175.25751953 16.81996582 174.57753906 16.11547852 173.87695312 C13.95442945 171.72799074 11.79015274 169.58232721 9.625 167.4375 C6.76783983 164.60716163 3.91416546 161.77337327 1.0625 158.9375 C0.42062744 158.30392578 -0.22124512 157.67035156 -0.88256836 157.01757812 C-4.64090619 153.2793436 -8.16906513 149.41319029 -11.63308716 145.40203857 C-14.46969425 142.202898 -17.50830116 139.22030871 -20.55859375 136.2265625 C-21.91224681 134.88555538 -23.26575806 133.54440511 -24.61914062 132.203125 C-26.71457803 130.13242047 -28.81160555 128.0633802 -30.91137695 125.99707031 C-48.85529045 108.32028575 -62.79571462 91.30766885 -63.6875 65 C-63.49472182 46.82101768 -56.21159026 29.37645542 -43.375 16.4375 C-30.70044555 5.60010644 -16.70298433 -0.17781142 0 0 Z " fill="#E61B23" transform="translate(201.375,159.5625)"/>
</svg>
